solid TP7_Tactile_Button_Caps
  facet normal 0.0000 0.0000 1.0000
    outer loop
      vertex 0.000 0.000 4.000
      vertex 3.400 0.000 4.000
      vertex 3.284 0.880 4.000
    endloop
  endfacet
  facet normal 0.0000 0.0000 -1.0000
    outer loop
      vertex 0.000 0.000 0.000
      vertex 3.284 0.880 0.000
      vertex 3.400 0.000 0.000
    endloop
  endfacet
  facet normal -0.9914 -0.1305 0.0000
    outer loop
      vertex 3.400 0.000 0.000
      vertex 3.400 0.000 4.000
      vertex 3.284 0.880 4.000
    endloop
  endfacet
  facet normal -0.9914 -0.1305 0.0000
    outer loop
      vertex 3.400 0.000 0.000
      vertex 3.284 0.880 4.000
      vertex 3.284 0.880 0.000
    endloop
  endfacet
  facet normal 0.0000 0.0000 1.0000
    outer loop
      vertex 0.000 0.000 4.000
      vertex 3.284 0.880 4.000
      vertex 2.944 1.700 4.000
    endloop
  endfacet
  facet normal 0.0000 0.0000 -1.0000
    outer loop
      vertex 0.000 0.000 0.000
      vertex 2.944 1.700 0.000
      vertex 3.284 0.880 0.000
    endloop
  endfacet
  facet normal -0.9239 -0.3827 0.0000
    outer loop
      vertex 3.284 0.880 0.000
      vertex 3.284 0.880 4.000
      vertex 2.944 1.700 4.000
    endloop
  endfacet
  facet normal -0.9239 -0.3827 0.0000
    outer loop
      vertex 3.284 0.880 0.000
      vertex 2.944 1.700 4.000
      vertex 2.944 1.700 0.000
    endloop
  endfacet
  facet normal 0.0000 0.0000 1.0000
    outer loop
      vertex 0.000 0.000 4.000
      vertex 2.944 1.700 4.000
      vertex 2.404 2.404 4.000
    endloop
  endfacet
  facet normal 0.0000 0.0000 -1.0000
    outer loop
      vertex 0.000 0.000 0.000
      vertex 2.404 2.404 0.000
      vertex 2.944 1.700 0.000
    endloop
  endfacet
  facet normal -0.7934 -0.6088 0.0000
    outer loop
      vertex 2.944 1.700 0.000
      vertex 2.944 1.700 4.000
      vertex 2.404 2.404 4.000
    endloop
  endfacet
  facet normal -0.7934 -0.6088 0.0000
    outer loop
      vertex 2.944 1.700 0.000
      vertex 2.404 2.404 4.000
      vertex 2.404 2.404 0.000
    endloop
  endfacet
  facet normal 0.0000 0.0000 1.0000
    outer loop
      vertex 0.000 0.000 4.000
      vertex 2.404 2.404 4.000
      vertex 1.700 2.944 4.000
    endloop
  endfacet
  facet normal 0.0000 0.0000 -1.0000
    outer loop
      vertex 0.000 0.000 0.000
      vertex 1.700 2.944 0.000
      vertex 2.404 2.404 0.000
    endloop
  endfacet
  facet normal -0.6088 -0.7934 0.0000
    outer loop
      vertex 2.404 2.404 0.000
      vertex 2.404 2.404 4.000
      vertex 1.700 2.944 4.000
    endloop
  endfacet
  facet normal -0.6088 -0.7934 0.0000
    outer loop
      vertex 2.404 2.404 0.000
      vertex 1.700 2.944 4.000
      vertex 1.700 2.944 0.000
    endloop
  endfacet
  facet normal 0.0000 0.0000 1.0000
    outer loop
      vertex 0.000 0.000 4.000
      vertex 1.700 2.944 4.000
      vertex 0.880 3.284 4.000
    endloop
  endfacet
  facet normal 0.0000 0.0000 -1.0000
    outer loop
      vertex 0.000 0.000 0.000
      vertex 0.880 3.284 0.000
      vertex 1.700 2.944 0.000
    endloop
  endfacet
  facet normal -0.3827 -0.9239 0.0000
    outer loop
      vertex 1.700 2.944 0.000
      vertex 1.700 2.944 4.000
      vertex 0.880 3.284 4.000
    endloop
  endfacet
  facet normal -0.3827 -0.9239 0.0000
    outer loop
      vertex 1.700 2.944 0.000
      vertex 0.880 3.284 4.000
      vertex 0.880 3.284 0.000
    endloop
  endfacet
  facet normal 0.0000 0.0000 1.0000
    outer loop
      vertex 0.000 0.000 4.000
      vertex 0.880 3.284 4.000
      vertex 0.000 3.400 4.000
    endloop
  endfacet
  facet normal 0.0000 0.0000 -1.0000
    outer loop
      vertex 0.000 0.000 0.000
      vertex 0.000 3.400 0.000
      vertex 0.880 3.284 0.000
    endloop
  endfacet
  facet normal -0.1305 -0.9914 0.0000
    outer loop
      vertex 0.880 3.284 0.000
      vertex 0.880 3.284 4.000
      vertex 0.000 3.400 4.000
    endloop
  endfacet
  facet normal -0.1305 -0.9914 0.0000
    outer loop
      vertex 0.880 3.284 0.000
      vertex 0.000 3.400 4.000
      vertex 0.000 3.400 0.000
    endloop
  endfacet
  facet normal 0.0000 0.0000 1.0000
    outer loop
      vertex 0.000 0.000 4.000
      vertex 0.000 3.400 4.000
      vertex -0.880 3.284 4.000
    endloop
  endfacet
  facet normal 0.0000 0.0000 -1.0000
    outer loop
      vertex 0.000 0.000 0.000
      vertex -0.880 3.284 0.000
      vertex 0.000 3.400 0.000
    endloop
  endfacet
  facet normal 0.1305 -0.9914 0.0000
    outer loop
      vertex 0.000 3.400 0.000
      vertex 0.000 3.400 4.000
      vertex -0.880 3.284 4.000
    endloop
  endfacet
  facet normal 0.1305 -0.9914 0.0000
    outer loop
      vertex 0.000 3.400 0.000
      vertex -0.880 3.284 4.000
      vertex -0.880 3.284 0.000
    endloop
  endfacet
  facet normal 0.0000 0.0000 1.0000
    outer loop
      vertex 0.000 0.000 4.000
      vertex -0.880 3.284 4.000
      vertex -1.700 2.944 4.000
    endloop
  endfacet
  facet normal 0.0000 0.0000 -1.0000
    outer loop
      vertex 0.000 0.000 0.000
      vertex -1.700 2.944 0.000
      vertex -0.880 3.284 0.000
    endloop
  endfacet
  facet normal 0.3827 -0.9239 0.0000
    outer loop
      vertex -0.880 3.284 0.000
      vertex -0.880 3.284 4.000
      vertex -1.700 2.944 4.000
    endloop
  endfacet
  facet normal 0.3827 -0.9239 0.0000
    outer loop
      vertex -0.880 3.284 0.000
      vertex -1.700 2.944 4.000
      vertex -1.700 2.944 0.000
    endloop
  endfacet
  facet normal 0.0000 0.0000 1.0000
    outer loop
      vertex 0.000 0.000 4.000
      vertex -1.700 2.944 4.000
      vertex -2.404 2.404 4.000
    endloop
  endfacet
  facet normal 0.0000 0.0000 -1.0000
    outer loop
      vertex 0.000 0.000 0.000
      vertex -2.404 2.404 0.000
      vertex -1.700 2.944 0.000
    endloop
  endfacet
  facet normal 0.6088 -0.7934 0.0000
    outer loop
      vertex -1.700 2.944 0.000
      vertex -1.700 2.944 4.000
      vertex -2.404 2.404 4.000
    endloop
  endfacet
  facet normal 0.6088 -0.7934 0.0000
    outer loop
      vertex -1.700 2.944 0.000
      vertex -2.404 2.404 4.000
      vertex -2.404 2.404 0.000
    endloop
  endfacet
  facet normal 0.0000 0.0000 1.0000
    outer loop
      vertex 0.000 0.000 4.000
      vertex -2.404 2.404 4.000
      vertex -2.944 1.700 4.000
    endloop
  endfacet
  facet normal 0.0000 0.0000 -1.0000
    outer loop
      vertex 0.000 0.000 0.000
      vertex -2.944 1.700 0.000
      vertex -2.404 2.404 0.000
    endloop
  endfacet
  facet normal 0.7934 -0.6088 0.0000
    outer loop
      vertex -2.404 2.404 0.000
      vertex -2.404 2.404 4.000
      vertex -2.944 1.700 4.000
    endloop
  endfacet
  facet normal 0.7934 -0.6088 0.0000
    outer loop
      vertex -2.404 2.404 0.000
      vertex -2.944 1.700 4.000
      vertex -2.944 1.700 0.000
    endloop
  endfacet
  facet normal 0.0000 0.0000 1.0000
    outer loop
      vertex 0.000 0.000 4.000
      vertex -2.944 1.700 4.000
      vertex -3.284 0.880 4.000
    endloop
  endfacet
  facet normal 0.0000 0.0000 -1.0000
    outer loop
      vertex 0.000 0.000 0.000
      vertex -3.284 0.880 0.000
      vertex -2.944 1.700 0.000
    endloop
  endfacet
  facet normal 0.9239 -0.3827 0.0000
    outer loop
      vertex -2.944 1.700 0.000
      vertex -2.944 1.700 4.000
      vertex -3.284 0.880 4.000
    endloop
  endfacet
  facet normal 0.9239 -0.3827 0.0000
    outer loop
      vertex -2.944 1.700 0.000
      vertex -3.284 0.880 4.000
      vertex -3.284 0.880 0.000
    endloop
  endfacet
  facet normal 0.0000 0.0000 1.0000
    outer loop
      vertex 0.000 0.000 4.000
      vertex -3.284 0.880 4.000
      vertex -3.400 0.000 4.000
    endloop
  endfacet
  facet normal 0.0000 0.0000 -1.0000
    outer loop
      vertex 0.000 0.000 0.000
      vertex -3.400 0.000 0.000
      vertex -3.284 0.880 0.000
    endloop
  endfacet
  facet normal 0.9914 -0.1305 0.0000
    outer loop
      vertex -3.284 0.880 0.000
      vertex -3.284 0.880 4.000
      vertex -3.400 0.000 4.000
    endloop
  endfacet
  facet normal 0.9914 -0.1305 0.0000
    outer loop
      vertex -3.284 0.880 0.000
      vertex -3.400 0.000 4.000
      vertex -3.400 0.000 0.000
    endloop
  endfacet
  facet normal 0.0000 0.0000 1.0000
    outer loop
      vertex 0.000 0.000 4.000
      vertex -3.400 0.000 4.000
      vertex -3.284 -0.880 4.000
    endloop
  endfacet
  facet normal 0.0000 0.0000 -1.0000
    outer loop
      vertex 0.000 0.000 0.000
      vertex -3.284 -0.880 0.000
      vertex -3.400 0.000 0.000
    endloop
  endfacet
  facet normal 0.9914 0.1305 0.0000
    outer loop
      vertex -3.400 0.000 0.000
      vertex -3.400 0.000 4.000
      vertex -3.284 -0.880 4.000
    endloop
  endfacet
  facet normal 0.9914 0.1305 0.0000
    outer loop
      vertex -3.400 0.000 0.000
      vertex -3.284 -0.880 4.000
      vertex -3.284 -0.880 0.000
    endloop
  endfacet
  facet normal 0.0000 0.0000 1.0000
    outer loop
      vertex 0.000 0.000 4.000
      vertex -3.284 -0.880 4.000
      vertex -2.944 -1.700 4.000
    endloop
  endfacet
  facet normal 0.0000 0.0000 -1.0000
    outer loop
      vertex 0.000 0.000 0.000
      vertex -2.944 -1.700 0.000
      vertex -3.284 -0.880 0.000
    endloop
  endfacet
  facet normal 0.9239 0.3827 0.0000
    outer loop
      vertex -3.284 -0.880 0.000
      vertex -3.284 -0.880 4.000
      vertex -2.944 -1.700 4.000
    endloop
  endfacet
  facet normal 0.9239 0.3827 0.0000
    outer loop
      vertex -3.284 -0.880 0.000
      vertex -2.944 -1.700 4.000
      vertex -2.944 -1.700 0.000
    endloop
  endfacet
  facet normal 0.0000 0.0000 1.0000
    outer loop
      vertex 0.000 0.000 4.000
      vertex -2.944 -1.700 4.000
      vertex -2.404 -2.404 4.000
    endloop
  endfacet
  facet normal 0.0000 0.0000 -1.0000
    outer loop
      vertex 0.000 0.000 0.000
      vertex -2.404 -2.404 0.000
      vertex -2.944 -1.700 0.000
    endloop
  endfacet
  facet normal 0.7934 0.6088 0.0000
    outer loop
      vertex -2.944 -1.700 0.000
      vertex -2.944 -1.700 4.000
      vertex -2.404 -2.404 4.000
    endloop
  endfacet
  facet normal 0.7934 0.6088 0.0000
    outer loop
      vertex -2.944 -1.700 0.000
      vertex -2.404 -2.404 4.000
      vertex -2.404 -2.404 0.000
    endloop
  endfacet
  facet normal 0.0000 0.0000 1.0000
    outer loop
      vertex 0.000 0.000 4.000
      vertex -2.404 -2.404 4.000
      vertex -1.700 -2.944 4.000
    endloop
  endfacet
  facet normal 0.0000 0.0000 -1.0000
    outer loop
      vertex 0.000 0.000 0.000
      vertex -1.700 -2.944 0.000
      vertex -2.404 -2.404 0.000
    endloop
  endfacet
  facet normal 0.6088 0.7934 0.0000
    outer loop
      vertex -2.404 -2.404 0.000
      vertex -2.404 -2.404 4.000
      vertex -1.700 -2.944 4.000
    endloop
  endfacet
  facet normal 0.6088 0.7934 0.0000
    outer loop
      vertex -2.404 -2.404 0.000
      vertex -1.700 -2.944 4.000
      vertex -1.700 -2.944 0.000
    endloop
  endfacet
  facet normal 0.0000 0.0000 1.0000
    outer loop
      vertex 0.000 0.000 4.000
      vertex -1.700 -2.944 4.000
      vertex -0.880 -3.284 4.000
    endloop
  endfacet
  facet normal 0.0000 0.0000 -1.0000
    outer loop
      vertex 0.000 0.000 0.000
      vertex -0.880 -3.284 0.000
      vertex -1.700 -2.944 0.000
    endloop
  endfacet
  facet normal 0.3827 0.9239 0.0000
    outer loop
      vertex -1.700 -2.944 0.000
      vertex -1.700 -2.944 4.000
      vertex -0.880 -3.284 4.000
    endloop
  endfacet
  facet normal 0.3827 0.9239 0.0000
    outer loop
      vertex -1.700 -2.944 0.000
      vertex -0.880 -3.284 4.000
      vertex -0.880 -3.284 0.000
    endloop
  endfacet
  facet normal 0.0000 0.0000 1.0000
    outer loop
      vertex 0.000 0.000 4.000
      vertex -0.880 -3.284 4.000
      vertex 0.000 -3.400 4.000
    endloop
  endfacet
  facet normal 0.0000 0.0000 -1.0000
    outer loop
      vertex 0.000 0.000 0.000
      vertex 0.000 -3.400 0.000
      vertex -0.880 -3.284 0.000
    endloop
  endfacet
  facet normal 0.1305 0.9914 0.0000
    outer loop
      vertex -0.880 -3.284 0.000
      vertex -0.880 -3.284 4.000
      vertex 0.000 -3.400 4.000
    endloop
  endfacet
  facet normal 0.1305 0.9914 0.0000
    outer loop
      vertex -0.880 -3.284 0.000
      vertex 0.000 -3.400 4.000
      vertex 0.000 -3.400 0.000
    endloop
  endfacet
  facet normal 0.0000 0.0000 1.0000
    outer loop
      vertex 0.000 0.000 4.000
      vertex 0.000 -3.400 4.000
      vertex 0.880 -3.284 4.000
    endloop
  endfacet
  facet normal 0.0000 0.0000 -1.0000
    outer loop
      vertex 0.000 0.000 0.000
      vertex 0.880 -3.284 0.000
      vertex 0.000 -3.400 0.000
    endloop
  endfacet
  facet normal -0.1305 0.9914 0.0000
    outer loop
      vertex 0.000 -3.400 0.000
      vertex 0.000 -3.400 4.000
      vertex 0.880 -3.284 4.000
    endloop
  endfacet
  facet normal -0.1305 0.9914 0.0000
    outer loop
      vertex 0.000 -3.400 0.000
      vertex 0.880 -3.284 4.000
      vertex 0.880 -3.284 0.000
    endloop
  endfacet
  facet normal 0.0000 0.0000 1.0000
    outer loop
      vertex 0.000 0.000 4.000
      vertex 0.880 -3.284 4.000
      vertex 1.700 -2.944 4.000
    endloop
  endfacet
  facet normal 0.0000 0.0000 -1.0000
    outer loop
      vertex 0.000 0.000 0.000
      vertex 1.700 -2.944 0.000
      vertex 0.880 -3.284 0.000
    endloop
  endfacet
  facet normal -0.3827 0.9239 0.0000
    outer loop
      vertex 0.880 -3.284 0.000
      vertex 0.880 -3.284 4.000
      vertex 1.700 -2.944 4.000
    endloop
  endfacet
  facet normal -0.3827 0.9239 0.0000
    outer loop
      vertex 0.880 -3.284 0.000
      vertex 1.700 -2.944 4.000
      vertex 1.700 -2.944 0.000
    endloop
  endfacet
  facet normal 0.0000 0.0000 1.0000
    outer loop
      vertex 0.000 0.000 4.000
      vertex 1.700 -2.944 4.000
      vertex 2.404 -2.404 4.000
    endloop
  endfacet
  facet normal 0.0000 0.0000 -1.0000
    outer loop
      vertex 0.000 0.000 0.000
      vertex 2.404 -2.404 0.000
      vertex 1.700 -2.944 0.000
    endloop
  endfacet
  facet normal -0.6088 0.7934 0.0000
    outer loop
      vertex 1.700 -2.944 0.000
      vertex 1.700 -2.944 4.000
      vertex 2.404 -2.404 4.000
    endloop
  endfacet
  facet normal -0.6088 0.7934 0.0000
    outer loop
      vertex 1.700 -2.944 0.000
      vertex 2.404 -2.404 4.000
      vertex 2.404 -2.404 0.000
    endloop
  endfacet
  facet normal 0.0000 0.0000 1.0000
    outer loop
      vertex 0.000 0.000 4.000
      vertex 2.404 -2.404 4.000
      vertex 2.944 -1.700 4.000
    endloop
  endfacet
  facet normal 0.0000 0.0000 -1.0000
    outer loop
      vertex 0.000 0.000 0.000
      vertex 2.944 -1.700 0.000
      vertex 2.404 -2.404 0.000
    endloop
  endfacet
  facet normal -0.7934 0.6088 0.0000
    outer loop
      vertex 2.404 -2.404 0.000
      vertex 2.404 -2.404 4.000
      vertex 2.944 -1.700 4.000
    endloop
  endfacet
  facet normal -0.7934 0.6088 0.0000
    outer loop
      vertex 2.404 -2.404 0.000
      vertex 2.944 -1.700 4.000
      vertex 2.944 -1.700 0.000
    endloop
  endfacet
  facet normal 0.0000 0.0000 1.0000
    outer loop
      vertex 0.000 0.000 4.000
      vertex 2.944 -1.700 4.000
      vertex 3.284 -0.880 4.000
    endloop
  endfacet
  facet normal 0.0000 0.0000 -1.0000
    outer loop
      vertex 0.000 0.000 0.000
      vertex 3.284 -0.880 0.000
      vertex 2.944 -1.700 0.000
    endloop
  endfacet
  facet normal -0.9239 0.3827 0.0000
    outer loop
      vertex 2.944 -1.700 0.000
      vertex 2.944 -1.700 4.000
      vertex 3.284 -0.880 4.000
    endloop
  endfacet
  facet normal -0.9239 0.3827 0.0000
    outer loop
      vertex 2.944 -1.700 0.000
      vertex 3.284 -0.880 4.000
      vertex 3.284 -0.880 0.000
    endloop
  endfacet
  facet normal 0.0000 0.0000 1.0000
    outer loop
      vertex 0.000 0.000 4.000
      vertex 3.284 -0.880 4.000
      vertex 3.400 0.000 4.000
    endloop
  endfacet
  facet normal 0.0000 0.0000 -1.0000
    outer loop
      vertex 0.000 0.000 0.000
      vertex 3.400 0.000 0.000
      vertex 3.284 -0.880 0.000
    endloop
  endfacet
  facet normal -0.9914 0.1305 0.0000
    outer loop
      vertex 3.284 -0.880 0.000
      vertex 3.284 -0.880 4.000
      vertex 3.400 0.000 4.000
    endloop
  endfacet
  facet normal -0.9914 0.1305 0.0000
    outer loop
      vertex 3.284 -0.880 0.000
      vertex 3.400 0.000 4.000
      vertex 3.400 0.000 0.000
    endloop
  endfacet
endsolid TP7_Tactile_Button_Caps
