solid TP7_Side_Rocker_Switch
  facet normal 0.0000 0.0000 1.0000
    outer loop
      vertex 0.000 0.000 6.000
      vertex 4.500 0.000 6.000
      vertex 4.500 16.000 6.000
    endloop
  endfacet
  facet normal 0.0000 0.0000 1.0000
    outer loop
      vertex 0.000 0.000 6.000
      vertex 4.500 16.000 6.000
      vertex 0.000 16.000 6.000
    endloop
  endfacet
  facet normal 0.0000 0.0000 -1.0000
    outer loop
      vertex 0.000 16.000 0.000
      vertex 4.500 16.000 0.000
      vertex 4.500 0.000 0.000
    endloop
  endfacet
  facet normal 0.0000 0.0000 -1.0000
    outer loop
      vertex 0.000 16.000 0.000
      vertex 4.500 0.000 0.000
      vertex 0.000 0.000 0.000
    endloop
  endfacet
  facet normal 0.0000 -1.0000 0.0000
    outer loop
      vertex 0.000 0.000 0.000
      vertex 4.500 0.000 0.000
      vertex 4.500 0.000 6.000
    endloop
  endfacet
  facet normal 0.0000 -1.0000 0.0000
    outer loop
      vertex 0.000 0.000 0.000
      vertex 4.500 0.000 6.000
      vertex 0.000 0.000 6.000
    endloop
  endfacet
  facet normal 0.0000 1.0000 0.0000
    outer loop
      vertex 4.500 16.000 0.000
      vertex 0.000 16.000 0.000
      vertex 0.000 16.000 6.000
    endloop
  endfacet
  facet normal 0.0000 1.0000 0.0000
    outer loop
      vertex 4.500 16.000 0.000
      vertex 0.000 16.000 6.000
      vertex 4.500 16.000 6.000
    endloop
  endfacet
  facet normal -1.0000 0.0000 0.0000
    outer loop
      vertex 0.000 16.000 0.000
      vertex 0.000 0.000 0.000
      vertex 0.000 0.000 6.000
    endloop
  endfacet
  facet normal -1.0000 0.0000 0.0000
    outer loop
      vertex 0.000 16.000 0.000
      vertex 0.000 0.000 6.000
      vertex 0.000 16.000 6.000
    endloop
  endfacet
  facet normal 1.0000 0.0000 0.0000
    outer loop
      vertex 4.500 0.000 0.000
      vertex 4.500 16.000 0.000
      vertex 4.500 16.000 6.000
    endloop
  endfacet
  facet normal 1.0000 0.0000 0.0000
    outer loop
      vertex 4.500 0.000 0.000
      vertex 4.500 16.000 6.000
      vertex 4.500 0.000 6.000
    endloop
  endfacet
endsolid TP7_Side_Rocker_Switch
